<svg width="262" height="273" viewBox="0 0 262 273" fill="none" xmlns="http://www.w3.org/2000/svg">
<g filter="url(#filter0_d_3_482)">
<path fill-rule="evenodd" clip-rule="evenodd" d="M163.002 63.7136L178.997 79.6424L194.998 95.5712C205.664 106.19 216.331 116.81 226.997 127.429L243 111.498L227.003 95.5712L211.004 79.6424L195.004 63.7136L178.997 47.7864L163.002 31.856L147.002 47.7864L131.002 63.7136L115.003 79.6424L131.002 95.5712L147.002 111.498L163.002 127.427L178.997 143.356L163.002 159.288L147.002 143.358L131.002 127.429L115.001 143.358L131.002 159.288L147.002 175.215L163.002 191.144L179.001 175.215L195.003 159.288L211.002 143.359L178.997 111.5L163.002 95.5712L147.002 79.6424L163.002 63.7136ZM131.002 31.8576L99.0014 63.7136L83.0002 79.6424L67.0006 95.5712L51.0009 111.498L67.0006 127.427L83.0002 111.5L98.9999 95.5712L115.001 111.5L99.003 127.427L83.0018 143.356L99.003 159.288L115.003 175.215L131.002 191.142L147.002 207.073L131.002 223L115.001 207.071L99.0014 191.142L83.0018 175.214L67.0006 159.288L51.0009 143.359L34.9997 127.429L19 111.5L35.0012 95.5712L51.0009 79.6424L67.0006 63.7136L83.0018 47.7864L99.0014 31.8576L115.001 15.9288L131.002 0L147.002 15.9272L131.002 31.8576Z" fill="white"/>
</g>
<defs>
<filter id="filter0_d_3_482" x="0" y="0" width="262" height="273" filterUnits="userSpaceOnUse" color-interpolation-filters="sRGB">
<feFlood flood-opacity="0" result="BackgroundImageFix"/>
<feColorMatrix in="SourceAlpha" type="matrix" values="0 0 0 0 0 0 0 0 0 0 0 0 0 0 0 0 0 0 127 0" result="hardAlpha"/>
<feOffset dy="31"/>
<feGaussianBlur stdDeviation="9.5"/>
<feComposite in2="hardAlpha" operator="out"/>
<feColorMatrix type="matrix" values="0 0 0 0 0.26059 0 0 0 0 0.658333 0 0 0 0 0.438045 0 0 0 1 0"/>
<feBlend mode="normal" in2="BackgroundImageFix" result="effect1_dropShadow_3_482"/>
<feBlend mode="normal" in="SourceGraphic" in2="effect1_dropShadow_3_482" result="shape"/>
</filter>
</defs>
</svg>
